<svg width="81" height="34" viewBox="0 0 81 34" fill="none" xmlns="http://www.w3.org/2000/svg">
<path d="M5.40777 13.9223H3.54369V8.47573C2.37864 8.20388 1.49515 7.67314 0.893204 6.8835C0.297735 6.09385 0 5.20712 0 4.2233V0H1.87379V4.24272C1.87379 5.01942 2.11327 5.62783 2.59223 6.06796C3.0712 6.50809 3.71197 6.72816 4.51456 6.72816C5.31068 6.72816 5.94498 6.50809 6.41748 6.06796C6.89644 5.62783 7.13592 5.01942 7.13592 4.24272V0H9.00971V4.2233C9.00971 5.21359 8.7055 6.10356 8.09709 6.8932C7.49515 7.67638 6.59871 8.20388 5.40777 8.47573V13.9223Z" fill="white"/>
<path d="M19.1798 13.9223H17.4322V8.5534C17.4322 7.7055 17.128 7.04531 16.5196 6.57282C15.9112 6.09385 15.1798 5.85437 14.3254 5.85437C13.3869 5.85437 12.6264 6.17799 12.0439 6.82524C11.4678 7.47249 11.1798 8.26214 11.1798 9.19417C11.1798 10.0939 11.4743 10.8608 12.0633 11.4951C12.6588 12.1294 13.4063 12.4466 14.306 12.4466C15.2251 12.4466 16.0277 12.0097 16.7138 11.1359V13.2039C16.2995 13.5081 15.9047 13.7379 15.5293 13.8932C15.1539 14.0421 14.6879 14.1165 14.1313 14.1165C13.2316 14.1165 12.4225 13.89 11.7041 13.4369C10.9856 12.9838 10.4258 12.3722 10.0245 11.6019C9.62964 10.8317 9.43223 9.98058 9.43223 9.04854C9.43223 7.65049 9.87884 6.48867 10.772 5.56311C11.6717 4.63754 12.8691 4.17476 14.3643 4.17476C15.8335 4.17476 17.0018 4.58576 17.8691 5.40777C18.7429 6.22977 19.1798 7.3301 19.1798 8.70874V13.9223Z" fill="white"/>
<path d="M22.4082 13.9223H20.6606V8.35922C20.6606 7.12298 21.0457 6.11651 21.8159 5.33981C22.5861 4.56311 23.5603 4.17476 24.7383 4.17476C25.9162 4.17476 26.8904 4.56311 27.6606 5.33981C28.4308 6.11651 28.8159 7.12298 28.8159 8.35922V13.9223H27.0684V8.35922C27.0684 7.6343 26.8386 7.0356 26.379 6.56311C25.926 6.09062 25.379 5.85437 24.7383 5.85437C24.0975 5.85437 23.5473 6.09062 23.0878 6.56311C22.6347 7.0356 22.4082 7.6343 22.4082 8.35922V13.9223Z" fill="white"/>
<path d="M37.3258 11.6796V13.4854C36.9893 13.6667 36.6106 13.8155 36.1899 13.932C35.7692 14.055 35.397 14.1165 35.0734 14.1165C33.6753 14.1165 32.5038 13.657 31.5588 12.7379C30.6203 11.8123 30.1511 10.657 30.1511 9.27184C30.1511 7.81553 30.6041 6.60194 31.5103 5.63107C32.4229 4.66019 33.6106 4.17476 35.0734 4.17476C35.7789 4.17476 36.4294 4.31068 37.0249 4.58252C37.6268 4.8479 38.1252 5.20388 38.52 5.65049C38.9148 6.09062 39.2223 6.59547 39.4423 7.16505C39.6624 7.72816 39.7724 8.31068 39.7724 8.91262V13.165C39.7724 14.0388 39.643 14.8155 39.3841 15.4951C39.1316 16.1812 38.7789 16.7346 38.3258 17.1553C37.8727 17.5825 37.3452 17.9061 36.7433 18.1262C36.1478 18.3463 35.4941 18.4563 34.7821 18.4563C33.7789 18.4563 32.7304 18.2718 31.6365 17.9029L32.054 16.3107C33.1931 16.6278 34.0766 16.7864 34.7045 16.7864C35.1252 16.7864 35.52 16.7346 35.8889 16.6311C36.2643 16.534 36.6171 16.3754 36.9472 16.1553C37.2773 15.9353 37.5394 15.6214 37.7336 15.2136C37.9278 14.8058 38.0249 14.3236 38.0249 13.767V9.31068C38.0249 8.26861 37.7304 7.43366 37.1414 6.80583C36.5588 6.17152 35.8436 5.85437 34.9957 5.85437C34.3291 5.85437 33.7562 6.01942 33.2773 6.34951C32.7983 6.67961 32.4488 7.1068 32.2287 7.63107C32.0087 8.14887 31.8986 8.72816 31.8986 9.36893C31.8986 10.288 32.1996 11.0324 32.8016 11.6019C33.41 12.165 34.1737 12.4466 35.0928 12.4466C35.7077 12.4466 36.452 12.1909 37.3258 11.6796Z" fill="white"/>
<path d="M40.9134 13.9223V12.2524H45.8066C46.5639 12.2524 46.9425 11.9482 46.9425 11.3398C46.9425 11.1068 46.8325 10.9029 46.6124 10.7282C46.3924 10.5469 46.1043 10.3981 45.7484 10.2816C45.3924 10.1586 45.0008 10.0388 44.5736 9.92233C44.1464 9.80583 43.716 9.6699 43.2823 9.51456C42.8551 9.35922 42.4636 9.17799 42.1076 8.97087C41.7516 8.76375 41.4636 8.48867 41.2435 8.14563C41.0234 7.80259 40.9134 7.40777 40.9134 6.96117C40.9134 6.11974 41.195 5.47896 41.7581 5.03884C42.3212 4.59871 43.127 4.37864 44.1755 4.37864H48.292V6.04854H43.8746C43.4539 6.04854 43.1626 6.11327 43.0008 6.24272C42.8454 6.3657 42.7613 6.57929 42.7484 6.8835C42.7484 7.10356 42.8584 7.29773 43.0784 7.46602C43.2985 7.62783 43.5833 7.76699 43.9328 7.8835C44.2888 7.99353 44.6804 8.1068 45.1076 8.2233C45.5348 8.33333 45.9619 8.46926 46.3891 8.63107C46.8228 8.78641 47.2144 8.97087 47.5639 9.18447C47.9199 9.39806 48.2079 9.68285 48.428 10.0388C48.6545 10.3883 48.7678 10.7961 48.7678 11.2621C48.7678 12.1294 48.4959 12.7896 47.9522 13.2427C47.4085 13.6958 46.6933 13.9223 45.8066 13.9223H40.9134Z" fill="white"/>
<path d="M59.1612 7.20388L52.7146 10.7767L51.9961 9.38835L56.7146 6.76699C56.3909 6.44337 56.0738 6.21036 55.7631 6.06796C55.4524 5.92557 55.0447 5.85437 54.5398 5.85437C53.6337 5.85437 52.8861 6.16181 52.2971 6.7767C51.7146 7.38511 51.4233 8.17476 51.4233 9.14563C51.4233 10.1165 51.7146 10.9094 52.2971 11.5243C52.8861 12.1392 53.6337 12.4466 54.5398 12.4466C55.5107 12.4466 56.2356 12.1909 56.7146 11.6796C57.2 11.1683 57.543 10.4304 57.7437 9.46602L59.5107 9.68932C59.4136 10.9644 58.899 12.0227 57.967 12.8641C57.0414 13.699 55.899 14.1165 54.5398 14.1165C53.6595 14.1165 52.844 13.9094 52.0932 13.4951C51.3424 13.0809 50.7372 12.4919 50.2777 11.7282C49.8181 10.9579 49.5884 10.0971 49.5884 9.14563C49.5884 8.19417 49.8181 7.33657 50.2777 6.57282C50.7372 5.80259 51.3424 5.21036 52.0932 4.79612C52.844 4.38188 53.6595 4.17476 54.5398 4.17476C56.6434 4.17476 58.1838 5.18447 59.1612 7.20388Z" fill="white"/>
<path d="M70.0109 7.20388L63.5643 10.7767L62.8458 9.38835L67.5643 6.76699C67.2406 6.44337 66.9235 6.21036 66.6128 6.06796C66.3021 5.92557 65.8944 5.85437 65.3895 5.85437C64.4834 5.85437 63.7358 6.16181 63.1468 6.7767C62.5643 7.38511 62.273 8.17476 62.273 9.14563C62.273 10.1165 62.5643 10.9094 63.1468 11.5243C63.7358 12.1392 64.4834 12.4466 65.3895 12.4466C66.3604 12.4466 67.0853 12.1909 67.5643 11.6796C68.0497 11.1683 68.3928 10.4304 68.5934 9.46602L70.3604 9.68932C70.2633 10.9644 69.7487 12.0227 68.8167 12.8641C67.8911 13.699 66.7487 14.1165 65.3895 14.1165C64.5093 14.1165 63.6937 13.9094 62.9429 13.4951C62.1921 13.0809 61.5869 12.4919 61.1274 11.7282C60.6678 10.9579 60.4381 10.0971 60.4381 9.14563C60.4381 8.19417 60.6678 7.33657 61.1274 6.57282C61.5869 5.80259 62.1921 5.21036 62.9429 4.79612C63.6937 4.38188 64.5093 4.17476 65.3895 4.17476C67.4931 4.17476 69.0335 5.18447 70.0109 7.20388Z" fill="white"/>
<path d="M79.2101 0H80.9577V8.87379C80.9577 10.4337 80.5078 11.699 79.6082 12.6699C78.7085 13.6343 77.5531 14.1165 76.1421 14.1165C75.1389 14.1165 74.2586 13.877 73.5014 13.3981C72.7441 12.9191 72.1713 12.2913 71.7829 11.5146C71.401 10.7314 71.2101 9.86408 71.2101 8.91262C71.2101 8.26537 71.3331 7.64725 71.579 7.05825C71.8315 6.46926 72.1648 5.9644 72.579 5.54369C72.9997 5.12298 73.4917 4.78964 74.0548 4.54369C74.6179 4.29773 75.2004 4.17476 75.8023 4.17476C76.812 4.17476 77.715 4.40129 78.5111 4.85437V6.68932C78.168 6.45631 77.7732 6.2589 77.3266 6.09709C76.8865 5.93528 76.4787 5.85437 76.1033 5.85437C75.1583 5.85437 74.3978 6.15534 73.8217 6.75728C73.2457 7.35275 72.9577 8.1424 72.9577 9.12621C72.9577 10.1036 73.2522 10.9029 73.8412 11.5243C74.4366 12.1392 75.2036 12.4466 76.1421 12.4466C77.0289 12.4466 77.7603 12.1133 78.3363 11.4466C78.9188 10.7735 79.2101 9.80906 79.2101 8.5534V0Z" fill="white"/>
<path d="M2.20388 33.8058H0.339806V24.5049C0.339806 23.7735 0.459547 23.1003 0.699029 22.4854C0.938511 21.8706 1.26214 21.3592 1.6699 20.9515C2.07767 20.5372 2.55016 20.2168 3.08738 19.9903C3.63107 19.7638 4.20065 19.6505 4.79612 19.6505C5.70874 19.6505 6.5178 19.8608 7.2233 20.2816C7.93528 20.6958 8.47249 21.2427 8.83495 21.9223C9.20388 22.5955 9.38835 23.3301 9.38835 24.1262C9.38835 24.9288 9.21683 25.6699 8.87379 26.3495C8.53074 27.0291 8.05502 27.5663 7.4466 27.9612C6.84466 28.356 6.18447 28.5534 5.46602 28.5534H2.94175V26.8058H4.93204C5.68932 26.8058 6.30744 26.5663 6.78641 26.0874C7.27184 25.6019 7.51456 24.9482 7.51456 24.1262C7.51456 23.2977 7.2589 22.6375 6.74757 22.1456C6.24272 21.6472 5.59871 21.3981 4.81553 21.3981C4.05178 21.3981 3.42395 21.6602 2.93204 22.1845C2.4466 22.7023 2.20388 23.3948 2.20388 24.2621V33.8058Z" fill="white"/>
<path d="M12.3643 33.8058H10.6167V19.8835H12.3643V33.8058Z" fill="white"/>
<path d="M23.7577 33.8058H22.0101V28.4369C22.0101 27.589 21.7059 26.9288 21.0975 26.4563C20.4891 25.9773 19.7577 25.7379 18.9033 25.7379C17.9648 25.7379 17.2043 26.0615 16.6217 26.7087C16.0457 27.356 15.7577 28.1456 15.7577 29.0777C15.7577 29.9773 16.0522 30.7443 16.6412 31.3786C17.2366 32.0129 17.9842 32.3301 18.8839 32.3301C19.803 32.3301 20.6056 31.8932 21.2917 31.0194V33.0874C20.8774 33.3916 20.4826 33.6214 20.1072 33.7767C19.7318 33.9256 19.2658 34 18.7091 34C17.8095 34 17.0004 33.7735 16.2819 33.3204C15.5635 32.8673 15.0036 32.2557 14.6023 31.4854C14.2075 30.7152 14.0101 29.8641 14.0101 28.932C14.0101 27.534 14.4567 26.3722 15.3499 25.4466C16.2496 24.521 17.447 24.0583 18.9421 24.0583C20.4114 24.0583 21.5797 24.4693 22.447 25.2913C23.3208 26.1133 23.7577 27.2136 23.7577 28.5922V33.8058Z" fill="white"/>
<path d="M26.986 33.8058H25.2384V28.2427C25.2384 27.0065 25.6236 26 26.3938 25.2233C27.164 24.4466 28.1381 24.0583 29.3161 24.0583C30.4941 24.0583 31.4682 24.4466 32.2384 25.2233C33.0087 26 33.3938 27.0065 33.3938 28.2427V33.8058H31.6462V28.2427C31.6462 27.5178 31.4164 26.9191 30.9569 26.4466C30.5038 25.9741 29.9569 25.7379 29.3161 25.7379C28.6753 25.7379 28.1252 25.9741 27.6656 26.4466C27.2126 26.9191 26.986 27.5178 26.986 28.2427V33.8058Z" fill="white"/>
<path d="M44.2532 27.0874L37.8066 30.6602L37.0882 29.2718L41.8066 26.6505C41.483 26.3269 41.1658 26.0939 40.8551 25.9515C40.5445 25.8091 40.1367 25.7379 39.6318 25.7379C38.7257 25.7379 37.9781 26.0453 37.3891 26.6602C36.8066 27.2686 36.5153 28.0583 36.5153 29.0291C36.5153 30 36.8066 30.7929 37.3891 31.4078C37.9781 32.0227 38.7257 32.3301 39.6318 32.3301C40.6027 32.3301 41.3276 32.0744 41.8066 31.5631C42.292 31.0518 42.6351 30.3139 42.8357 29.3495L44.6027 29.5728C44.5056 30.8479 43.9911 31.9062 43.059 32.7476C42.1335 33.5825 40.9911 34 39.6318 34C38.7516 34 37.9361 33.7929 37.1852 33.3786C36.4344 32.9644 35.8293 32.3754 35.3697 31.6117C34.9102 30.8414 34.6804 29.9806 34.6804 29.0291C34.6804 28.0777 34.9102 27.2201 35.3697 26.4563C35.8293 25.6861 36.4344 25.0939 37.1852 24.6796C37.9361 24.2654 38.7516 24.0583 39.6318 24.0583C41.7354 24.0583 43.2759 25.068 44.2532 27.0874Z" fill="white"/>
<path d="M51.2777 24.2621V25.932H47.8602V30.9417C47.8602 31.3754 47.9638 31.6828 48.1709 31.8641C48.378 32.0453 48.7113 32.1359 49.1709 32.1359H51.2777V33.8058H48.9379C48.0511 33.8058 47.3586 33.5307 46.8602 32.9806C46.3618 32.4304 46.1126 31.6796 46.1126 30.7282V21.8738H47.8602V24.2621H51.2777Z" fill="white"/>
</svg>
