<svg width="107" height="94" viewBox="0 0 107 94" fill="none" xmlns="http://www.w3.org/2000/svg">
<path d="M7.19803 87.7073C7.19803 87.7073 -0.965722 78.6688 0.0951041 65.7154C0.567466 59.9461 2.86963 53.4006 8.53798 46.5315C8.53798 46.5315 22.1816 27.7714 51.5412 20.5834C51.5412 20.5834 93.3262 11.0812 106.97 -0.00415039C106.97 -0.00415039 108.188 34.1061 95.1528 58.3485C95.1528 58.3485 72.1287 108.539 8.53798 89.6564C8.53798 89.6564 27.8261 84.0524 32.9426 81.0473C32.9426 81.0473 61.53 80.8851 75.4178 73.9817C75.4178 73.9817 46.8303 79.9101 37.7346 78.3674C40.2157 77.0394 42.8097 75.5412 45.48 73.8497C49.1532 71.5237 52.4486 69.1635 55.3782 66.8756C57.7002 66.4557 60.1821 65.9047 62.7888 65.1802C67.2707 63.9349 71.2206 62.4295 74.6058 60.9067C74.6058 60.9067 60.1495 65.2112 56.6577 65.1301C56.6577 65.1301 83.2149 42.9991 91.7421 25.8223C91.7421 25.8223 75.7836 45.314 49.8355 63.8307C49.8355 63.8307 52.3937 48.9688 58.6068 38.4918C58.6068 38.4918 49.9571 50.9179 45.3281 67.6072C45.3281 67.6072 33.0245 76.1344 28.273 78.3276C28.273 78.3276 30.4249 58.3087 34.5672 52.6236C34.5672 52.6236 29.0444 60.2578 24.009 80.4803C24.009 80.4787 13.3697 85.6771 7.19803 87.7073Z" fill="white" fill-opacity="0.3"/>
</svg>
