<svg width="37" height="32" viewBox="0 0 37 32" fill="none" xmlns="http://www.w3.org/2000/svg">
<path d="M2.45279 29.8845C2.45279 29.8845 -0.329078 26.8045 0.0324075 22.3906C0.193369 20.4246 0.977851 18.1942 2.90939 15.8535C2.90939 15.8535 7.55856 9.46083 17.5631 7.01145C17.5631 7.01145 31.8017 3.77353 36.4508 -0.00390625C36.4508 -0.00390625 36.866 11.6194 32.4241 19.8802C32.4241 19.8802 24.5784 36.983 2.90939 30.5486C2.90939 30.5486 9.48197 28.6391 11.2254 27.615C11.2254 27.615 20.9668 27.5597 25.6992 25.2074C25.6992 25.2074 15.9578 27.2275 12.8584 26.7018C13.7038 26.2493 14.5877 25.7388 15.4977 25.1624C16.7493 24.3698 17.8723 23.5655 18.8706 22.7859C19.6618 22.6428 20.5075 22.4551 21.3958 22.2082C22.923 21.7838 24.269 21.2709 25.4225 20.752C25.4225 20.752 20.4964 22.2188 19.3066 22.1911C19.3066 22.1911 28.3562 14.6498 31.2619 8.79666C31.2619 8.79666 25.8239 15.4386 16.9818 21.7483C16.9818 21.7483 17.8536 16.684 19.9707 13.1139C19.9707 13.1139 17.0233 17.3482 15.4459 23.0352C15.4459 23.0352 11.2534 25.9409 9.63426 26.6883C9.63426 26.6883 10.3675 19.8667 11.7791 17.9294C11.7791 17.9294 9.89711 20.5308 8.18127 27.4218C8.18127 27.4213 4.55585 29.1927 2.45279 29.8845Z" fill="#0A1A46"/>
</svg>
